<?xml version="1.0" standalone="no"?><!DOCTYPE svg PUBLIC "-//W3C//DTD SVG 1.1//EN" "http://www.w3.org/Graphics/SVG/1.1/DTD/svg11.dtd"><svg t="1630995871510" class="icon" viewBox="0 0 1024 1024" version="1.1" xmlns="http://www.w3.org/2000/svg" p-id="3950" xmlns:xlink="http://www.w3.org/1999/xlink" width="200" height="200"><defs><style type="text/css"></style></defs><path d="M897.886209 840.60818H394.90563c-32.05916 0-58.035788-25.995047-58.035788-58.035788v-38.692231c0-32.078603 25.976628-58.035788 58.035788-58.035787h502.980579c32.061207 0 58.036811 25.957185 58.036811 58.035787v38.692231c-0.001023 32.04074-25.975605 58.035788-58.036811 58.035788z m0-251.489778H394.90563c-32.05916 0-58.035788-25.995047-58.035788-58.036811v-38.691208c0-32.05916 25.976628-58.035788 58.035788-58.035787h502.980579c32.061207 0 58.036811 25.976628 58.036811 58.035787v38.691208c-0.001023 32.041764-25.975605 58.036811-58.036811 58.036811z m0-251.489778H394.90563c-32.05916 0-58.035788-25.995047-58.035788-58.036811v-38.691208c0-32.05916 25.976628-58.035788 58.035788-58.035787h502.980579c32.061207 0 58.036811 25.976628 58.036811 58.035787v38.691208c-0.001023 32.04074-25.975605 58.036811-58.036811 58.036811zM201.45164 840.60818h-77.381392c-32.060183 0-58.035788-25.995047-58.035787-58.035788v-38.692231c0-32.078603 25.976628-58.035788 58.035787-58.035787h77.381392c32.060183 0 58.035788 25.957185 58.035788 58.035787v38.692231c0 32.04074-25.976628 58.035788-58.035788 58.035788z m0-251.489778h-77.381392c-32.060183 0-58.035788-25.995047-58.035787-58.036811v-38.691208c0-32.05916 25.976628-58.035788 58.035787-58.035787h77.381392c32.060183 0 58.035788 25.976628 58.035788 58.035787v38.691208c0 32.041764-25.976628 58.036811-58.035788 58.036811z m0-251.489778h-77.381392c-32.060183 0-58.035788-25.995047-58.035787-58.036811v-38.691208c0-32.05916 25.976628-58.035788 58.035787-58.035787h77.381392c32.060183 0 58.035788 25.976628 58.035788 58.035787v38.691208c0 32.04074-25.976628 58.036811-58.035788 58.036811z" p-id="3951" fill="#d81e06"></path></svg>